<svg width="189" height="70" viewBox="0 0 189 70" fill="none" xmlns="http://www.w3.org/2000/svg">
<g clip-path="url(#clip0_961_6354)">
<path d="M54.5242 5.96118C55.2104 6.42395 55.8763 6.90601 56.5221 7.40734L50.9823 15.0488C50.3404 14.534 49.6754 14.0481 48.9844 13.6027L54.5242 5.96118Z" fill="#5454E9"/>
<path d="M21.2617 2.7968L24.1935 11.818C26.0766 10.9359 28.0617 10.2908 30.1034 9.8974L27.1745 0.87915C25.1502 1.34011 23.1713 1.98192 21.2617 2.7968Z" fill="#5454E9"/>
<path d="M41.8164 10.3575C42.5363 10.5571 43.2447 10.7827 43.9357 11.043L46.8502 2.07684C46.1544 1.82617 45.4479 1.59667 44.7309 1.38843L41.8164 10.3575Z" fill="#5454E9"/>
<path d="M12.7831 22.3287C13.7117 20.6992 14.816 19.1765 16.0763 17.7878L8.42298 12.2258C7.20264 13.6466 6.09846 15.1632 5.12109 16.761L12.7831 22.3287Z" fill="#5454E9"/>
<path d="M17.6742 16.1855C19.1269 14.8491 20.7287 13.6845 22.4477 12.7147L16.879 5.05005C15.1937 6.07145 13.5969 7.23245 12.1055 8.52083L17.6742 16.1855Z" fill="#5454E9"/>
<path d="M67.794 22.8088L58.8164 25.73C59.1661 26.6253 59.4644 27.5399 59.7098 28.4691L68.6729 25.5479C68.4127 24.6165 68.1159 23.7035 67.7824 22.8088" fill="#5454E9"/>
<path d="M9.41993 35C9.41993 34.1323 9.46619 33.3022 9.54715 32.4692H0.0925201C0.0318023 33.3051 0 34.1468 0 35C0 35.8533 0.0318023 36.6949 0.0925201 37.5308H9.54715C9.46619 36.6978 9.41993 35.8533 9.41993 35Z" fill="#5454E9"/>
<path d="M60.551 34.9999C60.551 35.535 60.5308 36.0672 60.4961 36.5936H69.9363C69.9594 36.0672 69.9739 35.535 69.9739 34.9999C69.9739 34.4648 69.9594 33.9326 69.9363 33.4033H60.4961C60.5308 33.9326 60.551 34.4619 60.551 34.9999Z" fill="#5454E9"/>
<path d="M9.98116 29.6724C10.3504 27.9299 10.9028 26.2313 11.6292 24.605L2.62563 21.678C1.94901 23.3237 1.39902 25.0187 0.980469 26.7482L9.98116 29.6724Z" fill="#5454E9"/>
<path d="M54.8438 18.8985C55.4184 19.6079 55.9552 20.3475 56.4513 21.114L64.0902 15.5636C63.5852 14.802 63.0503 14.0635 62.4855 13.3481L54.8438 18.8985Z" fill="#5454E9"/>
<path d="M31.7188 0.153408V9.64024C32.8033 9.50236 33.8954 9.42992 34.9888 9.42332C36.0825 9.42343 37.1749 9.4959 38.2589 9.64024V0.153408C37.724 0.104239 36.3998 0.00010678 34.9888 0.00010678C33.8969 -0.00502586 32.8053 0.0461482 31.7188 0.153408Z" fill="#5454E9"/>
<path d="M51.6703 54.3699C50.7295 55.1813 49.7313 55.9237 48.6836 56.5912L54.2436 64.2211C55.28 63.5388 56.279 62.8012 57.2361 62.0114L51.6703 54.3699Z" fill="#5454E9"/>
<path d="M11.5201 45.155C10.8813 43.6805 10.3846 42.1483 10.0369 40.5793L1.03906 43.5035C1.42872 45.0611 1.92528 46.5899 2.5252 48.0791L11.5201 45.155Z" fill="#5454E9"/>
<path d="M44.6366 58.6853C43.487 59.1574 42.3041 59.5441 41.0977 59.8422L44.0179 68.8286C45.2172 68.5059 46.3985 68.1197 47.5569 67.6717L44.6366 58.6853Z" fill="#5454E9"/>
<path d="M59.7742 41.3054C59.497 42.3878 59.1483 43.4507 58.7305 44.487L67.7109 47.4111C68.108 46.366 68.454 45.3007 68.7489 44.2151L59.7742 41.3054Z" fill="#5454E9"/>
<path d="M56.666 48.5564C56.044 49.5596 55.3542 50.5192 54.6016 51.4285L62.2404 56.973C62.9813 56.0553 63.6752 55.1006 64.3193 54.1125L56.666 48.5564Z" fill="#5454E9"/>
<path d="M16.2142 64.5393L21.7684 56.8949C20.5299 56.1412 19.3567 55.285 18.2613 54.3352L12.707 61.9854C13.823 62.9074 14.9942 63.7603 16.2142 64.5393Z" fill="#5454E9"/>
<path d="M15.7349 51.8158C14.7297 50.6672 13.8288 49.4311 13.0431 48.1223L5.39844 53.6814C6.21291 54.9694 7.11014 56.2032 8.08447 57.3749L15.7349 51.8158Z" fill="#5454E9"/>
<path d="M29.0713 59.8798C27.7322 59.5638 26.4209 59.1391 25.1507 58.6101L22.2305 67.5994C23.511 68.101 24.8201 68.526 26.1511 68.8721L29.0713 59.8798Z" fill="#5454E9"/>
<path d="M36.9451 69.9392V60.49C36.2974 60.5392 35.6469 60.571 34.9877 60.571C34.3284 60.571 33.675 60.5392 33.0273 60.49V69.9392C33.6779 69.9768 34.3284 69.997 34.9877 69.997C35.6469 69.997 36.2974 69.9768 36.9451 69.9392Z" fill="#5454E9"/>
<path d="M30.9226 20.0669C30.4488 20.1933 29.9817 20.3438 29.5232 20.5181L26.8748 12.382C27.3345 12.2171 27.8029 12.0696 28.2742 11.9308L30.9226 20.0669ZM34.9878 10.9648C34.4096 10.9648 33.8313 10.9937 33.2791 11.0313V19.6128C34.4147 19.4855 35.561 19.4855 36.6966 19.6128V11.0255C36.1183 10.9879 35.5632 10.959 34.9878 10.959M43.9712 12.6944C42.9449 12.2791 41.8908 11.936 40.8167 11.6676L38.1654 19.8355C39.2499 20.0629 40.3066 20.4072 41.3169 20.8623L43.9712 12.6944ZM50.3755 16.5296C49.5501 15.844 48.6809 15.2131 47.7733 14.6409L42.7279 21.5825C43.6589 22.1194 44.531 22.7524 45.3301 23.4712L50.3755 16.5296ZM21.5143 15.0834C21.0806 15.3727 20.6469 15.6908 20.245 16.0148L25.2759 22.939C25.685 22.6091 26.1106 22.3002 26.551 22.0134L21.5143 15.0834ZM55.2965 22.1494C54.742 21.2713 54.1317 20.4298 53.4692 19.6302L46.53 24.6773C47.2227 25.4527 47.8358 26.2957 48.3602 27.1936L55.2965 22.1494ZM11.8833 28.3939L20.0252 31.0375C20.1766 30.4642 20.361 29.9002 20.5775 29.3483L12.4268 26.7019C12.2244 27.2572 12.0452 27.8212 11.8833 28.3939ZM50.3899 36.4374H58.9656C58.9945 35.9573 59.0118 35.4743 59.0118 34.9913C59.0118 34.5082 58.9945 34.0194 58.9656 33.5451H50.3899C50.4333 34.0252 50.4593 34.5082 50.4593 34.9913C50.4593 35.4743 50.4333 35.966 50.3899 36.4374ZM16.0728 20.1913C15.7287 20.628 15.3962 21.0763 15.0811 21.5391L22.0202 26.5746C22.3236 26.1046 22.6528 25.6517 23.0062 25.2181L16.0728 20.1913ZM19.5424 34.0744H10.9841C10.9841 34.3868 10.9609 34.6992 10.9609 35.0144C10.9609 35.3297 10.9609 35.642 10.9841 35.9544H19.5453C19.5279 35.642 19.5164 35.3297 19.5164 35.0144C19.5164 34.6992 19.5164 34.3839 19.5453 34.0744M19.9934 53.7856C20.5717 54.2425 21.15 54.6736 21.76 55.0756L26.7938 48.134C26.1758 47.7454 25.5856 47.3143 25.0272 46.844L19.9934 53.7856ZM26.4873 57.4964C27.1957 57.7654 27.933 57.9997 28.6645 58.2021L31.313 50.0487C30.5708 49.8677 29.8431 49.6318 29.1358 49.343L26.4873 57.4964ZM14.9539 48.2757C15.3384 48.8542 15.749 49.4182 16.1798 49.9619L23.1189 44.9264C22.6727 44.3924 22.264 43.8279 21.8959 43.2373L14.9539 48.2757ZM11.8544 41.4961C12.0317 42.1363 12.2341 42.7658 12.4615 43.3848L20.6122 40.7354C20.3667 40.1217 20.161 39.4927 19.9963 38.8525L11.8544 41.4961ZM34.9849 59.0496C35.3868 59.0496 35.7829 59.0496 36.1819 59.0178V50.4392C35.7858 50.471 35.3868 50.4912 34.9849 50.4912C34.583 50.4912 34.184 50.471 33.7879 50.4392V59.0178C34.184 59.038 34.583 59.0496 34.9849 59.0496ZM58.2601 29.0302C58.0081 28.058 57.6952 27.1026 57.3233 26.1697L49.164 28.822C49.5669 29.7435 49.8778 30.7026 50.0921 31.6853L58.2601 29.0302ZM41.2013 58.2427C42.0042 58.0258 42.7955 57.768 43.5722 57.4704L40.9237 49.3169C40.1547 49.6368 39.3608 49.8932 38.5499 50.0834L41.2013 58.2427ZM57.3551 43.7811C57.6965 42.911 57.9862 42.0215 58.2225 41.1172L50.0603 38.462C49.8531 39.3765 49.5627 40.2701 49.1929 41.1316L57.3551 43.7811ZM53.5964 50.231C54.1651 49.5324 54.6941 48.8023 55.1808 48.0443L48.2417 43.0059C47.7752 43.7771 47.2431 44.5068 46.6514 45.1867L53.5964 50.231ZM48.0364 55.1884C48.7637 54.7171 49.4654 54.2073 50.1384 53.6612L45.0988 46.7196C44.4429 47.2881 43.7408 47.8008 42.9997 48.2526L48.0364 55.1884Z" fill="#5454E9"/>
<path d="M86.909 21.1194H82.0312V49.2848H86.909V21.1194Z" fill="#5454E9"/>
<path d="M92.6133 35.37C92.6133 26.8868 99.0436 20.4543 107.359 20.4543C112.179 20.4543 116.669 22.5628 119.384 26.4443L115.504 29.3829C113.234 26.3315 110.406 24.8911 107.301 24.8911C101.926 24.8911 97.6586 29.1602 97.6586 35.2052C97.6586 41.3572 102.036 45.5163 107.359 45.5163C110.794 45.5163 113.899 43.7982 116.059 40.8047L119.774 43.5206C117.057 47.6248 112.511 49.9531 107.301 49.9531C98.821 49.9531 92.6133 43.7982 92.6133 35.37Z" fill="#5454E9"/>
<path d="M151.202 36.3129H127.701C128.089 42.2451 132.024 45.6291 137.676 45.6291C141.502 45.6291 144.616 44.0759 146.989 40.8596L150.479 43.5206C147.764 47.5699 143.219 49.9531 137.567 49.9531C128.754 49.9531 122.711 44.021 122.711 35.425C122.711 26.6642 129.031 20.4543 137.621 20.4543C145.659 20.4543 151.367 25.9497 151.367 34.2044C151.373 34.9107 151.318 35.6162 151.202 36.3129ZM127.976 32.0988H146.379C145.659 27.2195 142.444 24.6684 137.621 24.6684C132.689 24.6684 129.086 27.3872 127.976 32.0988Z" fill="#5454E9"/>
<path d="M155.19 45.4612L158.293 41.8024C160.852 44.1918 164.215 45.5336 167.715 45.5624C171.474 45.5624 173.758 43.8444 173.758 41.5132C173.758 39.8501 172.538 38.5196 168.936 37.6866L164.003 36.5789C158.348 35.3034 155.965 32.8623 155.965 29.0386C155.965 23.9366 160.178 20.4426 166.773 20.4426C171.318 20.4426 175.531 22.0508 178.191 24.9344L174.921 28.3155C173.816 27.1919 172.495 26.3044 171.037 25.7068C169.579 25.1092 168.016 24.8139 166.44 24.839C162.728 24.839 160.733 26.3892 160.733 28.6655C160.733 30.3286 161.785 31.3814 165.666 32.2693L170.598 33.3771C176.306 34.6526 178.523 37.2586 178.523 41.1401C178.523 46.407 174.475 49.9559 167.536 49.9559C162.713 49.9559 157.995 48.2379 155.176 45.4641" fill="#5454E9"/>
<path d="M188.999 21.1194H184.121V49.2848H188.999V21.1194Z" fill="#5454E9"/>
</g>
<defs>
<clipPath id="clip0_961_6354">
<rect width="189" height="70" fill="white"/>
</clipPath>
</defs>
</svg>
